<?xml version="1.0" encoding="utf-8"?>
<!-- Generator: Adobe Illustrator 27.4.1, SVG Export Plug-In . SVG Version: 6.00 Build 0)  -->
<svg version="1.1" id="Layer_1" xmlns="http://www.w3.org/2000/svg" xmlns:xlink="http://www.w3.org/1999/xlink" x="0px" y="0px"
	 viewBox="0 0 512 512" style="enable-background:new 0 0 512 512;" xml:space="preserve">
<style type="text/css">
	.st0{fill:#E81044;stroke:#FFFFFF;stroke-width:50;stroke-miterlimit:10;}
</style>
<path class="st0" d="M80.7,295.6l158.5,147.9c6.6,6.1,15.3,9.6,24.3,9.6s17.7-3.4,24.3-9.6l158.5-147.9c26.7-24.8,41.7-59.6,41.7-96
	v-5.1c0-61.3-44.3-113.6-104.7-123.7c-40-6.7-80.7,6.4-109.3,35l-10.5,10.5L253,105.8c-28.6-28.6-69.3-41.7-109.3-35
	C83.3,80.9,39,133.1,39,194.4v5.1C39,235.9,54.1,270.7,80.7,295.6L80.7,295.6z"/>
</svg>
